PathFileType	4	(X/Y/Z)	D:\TRACE\v60_Jaco2_6-2-23\JustBodyDRS_Motion2_8-v60.trc
DataRate	CameraRate	NumFrames	NumMarkers	Units	OrigDataRate	OrigDataStartFrame	OrigNumFrames
100.00	100.00	      27	9	mm	100.00	5186	      6914
Frame#	Time	front left toe			Front right toe			aft left toe			aft right toe			Arm			FL body			FR body			AL Body			AR Body			
		X1	Y1	Z1	X2	Y2	Z2	X3	Y3	Z3	X4	Y4	Z4	X5	Y5	Z5	X6	Y6	Z6	X7	Y7	Z7	X8	Y8	Z8	X9	Y9	Z9	

5186	51.850	-267.39862	-15.76039	-330.10690	106.32060	102.67747	-320.64044	-281.21854	155.68314	300.00131	134.27463	43.50883	292.73737	-200.84360	1181.38049	-511.66296	-165.02281	550.63739	-475.53909	-5.20832	552.46399	-477.42786	-157.30577	593.54327	469.29370	-0.11881	589.50909	469.35907	
5187	51.860	-267.11365	-16.01358	-330.12900	101.71499	94.10173	-320.59656	-287.74167	146.96144	299.02600	134.96111	43.92046	292.83960	-199.83429	1181.39404	-511.69186	-165.36417	549.84448	-474.89648	-6.44102	551.76373	-476.65070	-158.15993	594.24384	469.78357	-1.20216	589.93951	469.60562	
5188	51.870	-266.25317	-16.44056	-330.02045	97.66729	85.06499	-320.59363	-294.27896	137.68347	298.46094	135.68666	44.14175	292.70325	-198.62215	1181.05249	-511.92029	-167.09160	550.05072	-474.92831	-6.35771	551.17212	-476.19534	-159.19775	594.86292	470.33057	-2.66389	590.34644	470.08115	
5189	51.880	-265.62109	-16.50153	-329.97955	93.27661	75.45088	-320.09872	-301.52902	127.96473	297.81564	135.79591	44.09890	292.63940	-196.97749	1180.92346	-512.00671	-167.55225	550.07281	-474.14655	-7.63873	550.70752	-475.02744	-160.27005	595.37805	471.07339	-3.46857	590.46918	470.98856	
5190	51.890	-265.23636	-16.42748	-330.06738	89.05800	65.75686	-319.55502	-308.46448	117.62269	297.55313	136.35687	44.22966	292.64902	-196.02730	1180.92627	-511.67953	-167.33556	549.71796	-472.94531	-7.37397	550.43896	-474.53955	-161.18973	595.85962	471.74615	-4.73800	590.52380	471.59488	
5191	51.900	-264.69830	-16.53213	-330.21204	84.80574	56.16946	-318.75095	-314.23831	107.11309	297.58929	137.10304	44.38513	292.80286	-194.67969	1180.60461	-511.59164	-167.64690	549.67401	-472.09662	-7.63132	549.58624	-472.86838	-162.15898	596.38586	472.58060	-5.83937	590.57654	472.68369	
5192	51.910	-264.09445	-16.88860	-330.30051	81.11210	46.45203	-316.93658	-318.46384	98.04926	299.11353	138.05580	44.55288	292.91876	-193.42447	1180.38245	-510.71243	-167.69844	549.23773	-471.18771	-8.41688	548.61194	-472.03625	-163.55074	596.99463	473.47656	-7.21493	590.60504	473.67435	
5193	51.920	-263.22736	-17.28909	-330.30890	78.10450	36.78814	-314.25269	-322.34460	89.33950	301.15372	138.34528	44.70463	293.07831	-191.84558	1180.02014	-510.00623	-168.72316	548.93445	-470.55450	-8.00080	547.63116	-470.97946	-164.97116	597.31946	474.58762	-8.47651	590.47717	474.86642	
5194	51.930	-262.59821	-17.21552	-330.17374	75.81492	27.69651	-310.46802	-323.80038	80.36717	304.10388	138.66238	44.71213	293.02753	-190.14835	1179.82239	-509.01660	-168.99088	548.77728	-469.31979	-8.18667	546.95691	-469.58426	-166.28580	597.78644	475.63687	-9.86834	590.36115	476.46790	
5195	51.940	-262.24326	-17.11696	-330.06448	74.56348	19.57779	-306.28625	-325.29999	72.30878	307.42038	139.34303	45.03078	293.23273	-187.34001	1179.47192	-508.44119	-168.76416	548.22162	-467.70697	-8.95469	546.32758	-467.98224	-167.72371	598.05078	476.93448	-11.49898	590.28064	477.74777	
5196	51.950	-261.57120	-17.15289	-329.95013	74.43542	12.52169	-302.02130	-326.21536	65.81723	310.88425	140.98633	45.68656	293.60153	-184.56664	1179.36975	-507.72327	-168.91174	548.17352	-466.13980	-9.04707	545.58008	-466.33707	-169.30125	598.22095	478.26202	-12.51955	589.89734	479.31631	
5197	51.960	-260.40866	-17.60137	-329.92020	74.25642	6.13292	-298.24020	-327.03323	60.02849	314.38193	141.24522	45.68571	293.56564	-181.76016	1179.43872	-506.94803	-169.42531	547.97980	-464.51581	-9.90874	544.76343	-464.46915	-170.28352	598.55383	479.77115	-13.95445	589.71423	481.09732	
5198	51.970	-259.62958	-17.71640	-329.92725	74.26620	-0.24806	-294.74121	-328.14178	54.08399	317.29556	142.07875	45.99663	294.17609	-179.52527	1178.95239	-505.79709	-170.42857	547.82019	-463.17322	-9.60269	543.93427	-462.63651	-171.52390	598.95477	481.46021	-15.27314	589.58801	482.99741	
5199	51.980	-259.17419	-17.41222	-329.88177	73.47658	-7.09070	-291.28741	-329.61813	48.28989	320.18433	142.50069	46.00220	294.17285	-177.68155	1178.68140	-504.00620	-170.35291	547.50604	-461.32840	-9.86864	543.28802	-460.52911	-173.74236	599.55865	483.58810	-16.51249	589.41302	485.16501	
5200	51.990	-258.27643	-17.19495	-329.51810	74.40878	-8.99736	-292.00436	-329.50467	45.73393	320.23682	143.28429	46.23318	294.49496	-176.62187	1178.56482	-501.70248	-169.84897	547.08636	-458.83899	-9.93531	542.51343	-458.32465	-174.46825	599.86523	485.52148	-17.64294	589.32361	487.26669	
5201	52.000	-257.12170	-17.27442	-329.41833	75.46220	-12.25531	-291.44244	-329.99545	44.41659	318.89069	143.45874	45.65976	294.56305	-175.64796	1178.56848	-499.59631	-169.72328	547.22931	-456.57358	-10.62377	542.13110	-455.54959	-175.75723	600.90582	487.44058	-18.44195	589.58801	489.44290	
5202	52.010	-256.21466	-16.39155	-328.69577	76.80328	-12.25635	-290.71240	-329.25143	43.15408	320.42282	144.34009	45.78739	295.60056	-174.44920	1178.79883	-497.65527	-170.37204	548.00940	-454.60843	-10.35641	542.62164	-453.54800	-176.34323	601.72772	489.78259	-19.16463	590.11932	491.75110	
5203	52.020	-255.53427	-15.45361	-327.35327	77.79249	-11.85245	-291.41565	-327.68732	42.70630	321.47708	144.38705	46.46273	296.38800	-173.17441	1179.82764	-495.63351	-171.25113	549.28510	-453.10995	-10.63570	543.97028	-451.70984	-176.40346	602.17133	492.71600	-19.87825	590.62970	493.88824	
5204	52.030	-255.32938	-12.38002	-327.96405	77.73727	-11.20601	-290.69843	-327.25806	41.22076	321.87100	143.25175	48.27316	295.42944	-172.26227	1181.80347	-493.62326	-171.41682	551.27570	-451.44952	-10.88497	545.65198	-450.09964	-177.04742	602.04834	494.34442	-20.26727	590.37048	495.73236	
5205	52.040	-252.52644	-6.99656	-325.05646	78.20555	-10.14968	-290.43515	-327.57492	40.65667	321.86862	139.67844	51.33901	298.19263	-172.28513	1183.82019	-490.90787	-170.38153	552.49292	-449.81131	-10.96521	547.20264	-448.43231	-177.37637	601.03180	495.07178	-20.47971	589.25818	497.05347	
5206	52.050	-250.08859	-1.68495	-319.68164	78.89024	-10.01965	-290.67517	-326.34677	40.25596	321.29755	135.69019	53.94576	303.40411	-173.21312	1185.72180	-487.70554	-170.68967	553.95020	-449.08069	-10.73146	548.48267	-447.53101	-177.21321	600.40942	496.12363	-20.56119	588.66101	498.13602	
5207	52.060	-248.13861	10.00361	-317.73880	80.20368	-10.33748	-290.98468	-325.58649	40.17277	321.43823	130.43683	63.41072	305.69095	-174.41849	1187.39807	-484.03091	-169.04362	554.23132	-447.92130	-9.15518	549.05182	-446.52847	-177.71674	599.92798	497.56943	-20.76754	588.06262	499.53137	
5208	52.070	-246.50787	20.35344	-315.72433	81.21052	-10.36850	-290.75595	-324.77490	39.75333	321.45938	128.22540	73.05639	307.21698	-175.46254	1187.78015	-481.29764	-168.54863	554.37122	-446.96439	-8.54040	549.27490	-445.53210	-178.06624	599.53040	498.26328	-20.56212	587.86816	500.58521	
5209	52.080	-245.50110	33.48161	-315.40381	82.30525	-9.97611	-290.24823	-323.95917	39.23486	321.63144	128.10573	86.78672	308.65549	-175.93880	1187.82227	-479.82385	-167.64302	554.10510	-445.91711	-7.58362	549.22296	-444.26257	-178.01428	598.75903	499.46014	-20.67033	587.32520	501.90970	
5210	52.090	-245.59824	46.40234	-314.99811	82.93601	-9.69693	-289.82486	-323.06363	38.56346	322.04181	130.34799	100.34216	309.55148	-175.63292	1186.80505	-479.36765	-166.63574	553.85657	-444.53189	-6.46066	549.09741	-442.69623	-177.90941	598.00775	500.62875	-21.14063	586.80084	503.27426	
5211	52.100	-246.20352	58.95533	-313.27039	83.94251	-9.19111	-289.52219	-322.20490	38.11900	322.16708	131.30910	113.67368	312.48495	-174.62505	1185.58728	-479.04739	-165.37610	553.06537	-443.24509	-5.93927	548.80737	-441.29260	-178.12389	597.39014	501.73376	-21.03662	586.33826	504.53345	
5212	52.110	-246.94450	71.39486	-310.92468	84.97549	-9.05358	-289.24088	-321.33173	37.79989	322.31677	131.13066	128.09837	315.64685	-173.36406	1184.06348	-478.62253	-165.29010	552.42242	-442.70767	-5.00122	548.29688	-440.16400	-177.99121	596.83038	502.85654	-20.94304	586.33643	505.61002	
